<svg width="300" height="300" viewBox="0 0 300 300" fill="none" xmlns="http://www.w3.org/2000/svg">
<g clip-path="url(#clip0_1_48)">
<path d="M300 0H0V300H300V0Z" fill="#B49FCC"/>
<path d="M102.851 143.508V148.43H109.46V151.552H102.851V156.755H110.304V159.961H98.9133V140.302H110.304V143.508H102.851ZM112.87 152.114C112.87 150.539 113.179 149.142 113.798 147.923C114.435 146.705 115.298 145.767 116.385 145.111C117.473 144.455 118.682 144.127 120.014 144.127C121.026 144.127 121.992 144.352 122.91 144.802C123.829 145.233 124.56 145.814 125.104 146.545V139.148H129.098V159.961H125.104V157.655C124.617 158.423 123.932 159.042 123.051 159.511C122.17 159.98 121.148 160.214 119.985 160.214C118.673 160.214 117.473 159.877 116.385 159.202C115.298 158.527 114.435 157.58 113.798 156.361C113.179 155.123 112.87 153.708 112.87 152.114ZM125.132 152.17C125.132 151.214 124.945 150.398 124.57 149.723C124.195 149.03 123.689 148.505 123.051 148.148C122.414 147.773 121.729 147.586 120.998 147.586C120.267 147.586 119.592 147.764 118.973 148.12C118.354 148.477 117.848 149.002 117.454 149.695C117.079 150.37 116.892 151.177 116.892 152.114C116.892 153.052 117.079 153.877 117.454 154.589C117.848 155.283 118.354 155.817 118.973 156.192C119.61 156.567 120.285 156.755 120.998 156.755C121.729 156.755 122.414 156.577 123.051 156.22C123.689 155.845 124.195 155.32 124.57 154.645C124.945 153.952 125.132 153.127 125.132 152.17ZM147.653 144.38V159.961H143.687V157.992C143.181 158.667 142.515 159.202 141.69 159.595C140.884 159.97 140.003 160.158 139.047 160.158C137.828 160.158 136.75 159.905 135.812 159.398C134.875 158.873 134.134 158.114 133.59 157.12C133.065 156.108 132.803 154.908 132.803 153.52V144.38H136.74V152.958C136.74 154.195 137.05 155.152 137.668 155.827C138.287 156.483 139.131 156.811 140.2 156.811C141.287 156.811 142.14 156.483 142.759 155.827C143.378 155.152 143.687 154.195 143.687 152.958V144.38H147.653ZM150.582 150.117C150.582 148.186 151.013 146.461 151.875 144.942C152.757 143.405 153.947 142.214 155.447 141.37C156.966 140.508 158.663 140.077 160.538 140.077C162.732 140.077 164.653 140.639 166.303 141.764C167.953 142.889 169.107 144.445 169.763 146.433H165.235C164.785 145.495 164.147 144.792 163.322 144.323C162.516 143.855 161.578 143.62 160.51 143.62C159.366 143.62 158.344 143.892 157.444 144.436C156.563 144.961 155.869 145.711 155.363 146.686C154.875 147.661 154.632 148.805 154.632 150.117C154.632 151.411 154.875 152.555 155.363 153.548C155.869 154.523 156.563 155.283 157.444 155.827C158.344 156.352 159.366 156.614 160.51 156.614C161.578 156.614 162.516 156.38 163.322 155.911C164.147 155.423 164.785 154.711 165.235 153.773H169.763C169.107 155.78 167.953 157.345 166.303 158.47C164.672 159.577 162.75 160.13 160.538 160.13C158.663 160.13 156.966 159.708 155.447 158.864C153.947 158.002 152.757 156.811 151.875 155.292C151.013 153.773 150.582 152.048 150.582 150.117ZM180.045 160.214C178.545 160.214 177.195 159.886 175.995 159.23C174.795 158.555 173.848 157.608 173.154 156.389C172.479 155.17 172.142 153.764 172.142 152.17C172.142 150.577 172.489 149.17 173.182 147.952C173.895 146.733 174.861 145.795 176.079 145.139C177.298 144.464 178.657 144.127 180.157 144.127C181.657 144.127 183.017 144.464 184.235 145.139C185.454 145.795 186.41 146.733 187.104 147.952C187.817 149.17 188.173 150.577 188.173 152.17C188.173 153.764 187.807 155.17 187.076 156.389C186.364 157.608 185.389 158.555 184.151 159.23C182.932 159.886 181.564 160.214 180.045 160.214ZM180.045 156.783C180.757 156.783 181.423 156.614 182.042 156.277C182.679 155.92 183.185 155.395 183.56 154.702C183.935 154.008 184.123 153.164 184.123 152.17C184.123 150.689 183.729 149.555 182.942 148.767C182.173 147.961 181.226 147.558 180.101 147.558C178.976 147.558 178.029 147.961 177.261 148.767C176.511 149.555 176.135 150.689 176.135 152.17C176.135 153.652 176.501 154.795 177.232 155.602C177.982 156.389 178.92 156.783 180.045 156.783ZM199.695 144.155C201.552 144.155 203.052 144.745 204.195 145.927C205.339 147.089 205.911 148.72 205.911 150.82V159.961H201.974V151.355C201.974 150.117 201.664 149.17 201.045 148.514C200.427 147.839 199.583 147.502 198.514 147.502C197.427 147.502 196.564 147.839 195.927 148.514C195.308 149.17 194.999 150.117 194.999 151.355V159.961H191.061V144.38H194.999V146.32C195.524 145.645 196.189 145.12 196.995 144.745C197.82 144.352 198.72 144.155 199.695 144.155ZM218.29 144.155C220.146 144.155 221.646 144.745 222.79 145.927C223.934 147.089 224.506 148.72 224.506 150.82V159.961H220.568V151.355C220.568 150.117 220.259 149.17 219.64 148.514C219.021 147.839 218.177 147.502 217.109 147.502C216.021 147.502 215.159 147.839 214.521 148.514C213.902 149.17 213.593 150.117 213.593 151.355V159.961H209.656V144.38H213.593V146.32C214.118 145.645 214.784 145.12 215.59 144.745C216.415 144.352 217.315 144.155 218.29 144.155ZM242.734 151.833C242.734 152.395 242.697 152.902 242.622 153.352H231.231C231.325 154.477 231.719 155.358 232.412 155.995C233.106 156.633 233.959 156.952 234.972 156.952C236.434 156.952 237.475 156.323 238.094 155.067H242.341C241.891 156.567 241.028 157.805 239.753 158.78C238.478 159.736 236.912 160.214 235.056 160.214C233.556 160.214 232.206 159.886 231.006 159.23C229.825 158.555 228.897 157.608 228.222 156.389C227.566 155.17 227.237 153.764 227.237 152.17C227.237 150.558 227.566 149.142 228.222 147.923C228.878 146.705 229.797 145.767 230.978 145.111C232.159 144.455 233.519 144.127 235.056 144.127C236.537 144.127 237.859 144.445 239.022 145.083C240.203 145.72 241.112 146.63 241.75 147.811C242.406 148.973 242.734 150.314 242.734 151.833ZM238.656 150.708C238.637 149.695 238.272 148.889 237.559 148.289C236.847 147.67 235.975 147.361 234.944 147.361C233.969 147.361 233.144 147.661 232.469 148.261C231.812 148.842 231.409 149.658 231.259 150.708H238.656ZM244.596 152.17C244.596 150.558 244.924 149.152 245.58 147.952C246.236 146.733 247.146 145.795 248.308 145.139C249.471 144.464 250.802 144.127 252.302 144.127C254.233 144.127 255.827 144.614 257.083 145.589C258.358 146.545 259.211 147.895 259.643 149.639H255.396C255.171 148.964 254.786 148.439 254.243 148.064C253.718 147.67 253.061 147.473 252.274 147.473C251.149 147.473 250.258 147.886 249.602 148.711C248.946 149.517 248.618 150.67 248.618 152.17C248.618 153.652 248.946 154.805 249.602 155.63C250.258 156.436 251.149 156.839 252.274 156.839C253.868 156.839 254.908 156.127 255.396 154.702H259.643C259.211 156.389 258.358 157.73 257.083 158.723C255.808 159.717 254.215 160.214 252.302 160.214C250.802 160.214 249.471 159.886 248.308 159.23C247.146 158.555 246.236 157.617 245.58 156.417C244.924 155.198 244.596 153.783 244.596 152.17ZM267.112 147.614V155.152C267.112 155.677 267.234 156.061 267.477 156.305C267.74 156.53 268.171 156.642 268.771 156.642H270.599V159.961H268.124C264.805 159.961 263.146 158.348 263.146 155.123V147.614H261.29V144.38H263.146V140.527H267.112V144.38H270.599V147.614H267.112Z" fill="white"/>
<path d="M52.7773 131.859L42.6732 121.74C42.1016 121.167 41.1748 121.167 40.6031 121.74L37.8036 124.543C37.2319 125.116 37.2319 126.044 37.8036 126.617L47.9076 136.736C48.4793 137.308 49.4061 137.308 49.9777 136.736L52.7773 133.932C53.3489 133.359 53.3489 132.431 52.7773 131.859Z" fill="white"/>
<path d="M62.5093 131.887L72.6134 121.768C73.185 121.196 74.1118 121.196 74.6835 121.768L77.4831 124.572C78.0547 125.144 78.0547 126.072 77.4831 126.645L67.379 136.764C66.8073 137.336 65.8805 137.336 65.3089 136.764L62.5093 133.96C61.9377 133.388 61.9377 132.46 62.5093 131.887Z" fill="white"/>
<path d="M66.295 137.284H49.0781V131.537H66.295V137.284Z" fill="white"/>
<path d="M39.5571 154.988L29.453 165.107C28.8814 165.68 28.8814 166.608 29.453 167.18L32.2526 169.984C32.8242 170.557 33.751 170.557 34.3227 169.984L44.4267 159.865C44.9984 159.293 44.9984 158.364 44.4267 157.792L41.6271 154.988C41.0555 154.416 40.1287 154.416 39.5571 154.988Z" fill="white"/>
<path d="M39.5854 145.242L29.4813 135.123C28.9097 134.55 28.9097 133.622 29.4813 133.05L32.2809 130.246C32.8525 129.673 33.7793 129.673 34.351 130.246L44.4551 140.365C45.0267 140.937 45.0267 141.866 44.4551 142.438L41.6555 145.242C41.0838 145.814 40.157 145.814 39.5854 145.242Z" fill="white"/>
<path d="M44.9746 141.45V158.693H39.2357V141.45H44.9746Z" fill="white"/>
<path d="M62.6524 168.141L72.7565 178.26C73.3281 178.833 74.2549 178.833 74.8265 178.26L77.6261 175.457C78.1978 174.884 78.1978 173.956 77.6261 173.383L67.522 163.264C66.9504 162.692 66.0236 162.692 65.452 163.264L62.6524 166.068C62.0808 166.641 62.0808 167.569 62.6524 168.141Z" fill="white"/>
<path d="M52.9204 168.113L42.8163 178.232C42.2447 178.804 41.3178 178.804 40.7462 178.232L37.9466 175.428C37.375 174.856 37.375 173.928 37.9466 173.355L48.0507 163.236C48.6223 162.664 49.5491 162.664 50.1208 163.236L52.9204 166.04C53.492 166.612 53.492 167.54 52.9204 168.113Z" fill="white"/>
<path d="M49.1347 162.716H66.3516V168.463H49.1347V162.716Z" fill="white"/>
<path d="M75.8726 145.012L85.9767 134.893C86.5483 134.32 86.5483 133.392 85.9767 132.82L83.1771 130.016C82.6055 129.443 81.6787 129.443 81.107 130.016L71.003 140.135C70.4313 140.707 70.4313 141.636 71.003 142.208L73.8025 145.012C74.3742 145.584 75.301 145.584 75.8726 145.012Z" fill="white"/>
<path d="M75.8445 154.758L85.9486 164.877C86.5202 165.45 86.5202 166.378 85.9486 166.95L83.149 169.754C82.5774 170.327 81.6506 170.327 81.079 169.754L70.9749 159.635C70.4032 159.063 70.4032 158.134 70.9749 157.562L73.7745 154.758C74.3461 154.186 75.2729 154.186 75.8445 154.758Z" fill="white"/>
<path d="M70.4551 158.55V141.307H76.194V158.55H70.4551Z" fill="white"/>
</g>
<defs>
<clipPath id="clip0_1_48">
<rect width="300" height="300" fill="white"/>
</clipPath>
</defs>
</svg>
