<svg width="1024" height="1024" viewBox="0 0 1024 1024" fill="none" xmlns="http://www.w3.org/2000/svg">
<path d="M351.064 489.84V506.64H373.624V517.296H351.064V535.056H376.504V546H337.624V478.896H376.504V489.84H351.064ZM385.262 519.216C385.262 513.84 386.318 509.072 388.43 504.912C390.606 500.752 393.55 497.552 397.262 495.312C400.974 493.072 405.102 491.952 409.646 491.952C413.102 491.952 416.398 492.72 419.534 494.256C422.67 495.728 425.166 497.712 427.022 500.208V474.96H440.654V546H427.022V538.128C425.358 540.752 423.022 542.864 420.014 544.464C417.006 546.064 413.518 546.864 409.55 546.864C405.07 546.864 400.974 545.712 397.262 543.408C393.55 541.104 390.606 537.872 388.43 533.712C386.318 529.488 385.262 524.656 385.262 519.216ZM427.118 519.408C427.118 516.144 426.478 513.36 425.198 511.056C423.918 508.688 422.19 506.896 420.014 505.68C417.838 504.4 415.502 503.76 413.006 503.76C410.51 503.76 408.206 504.368 406.094 505.584C403.982 506.8 402.254 508.592 400.91 510.96C399.63 513.264 398.99 516.016 398.99 519.216C398.99 522.416 399.63 525.232 400.91 527.664C402.254 530.032 403.982 531.856 406.094 533.136C408.27 534.416 410.574 535.056 413.006 535.056C415.502 535.056 417.838 534.448 420.014 533.232C422.19 531.952 423.918 530.16 425.198 527.856C426.478 525.488 427.118 522.672 427.118 519.408ZM503.988 492.816V546H490.452V539.28C488.724 541.584 486.452 543.408 483.636 544.752C480.884 546.032 477.876 546.672 474.612 546.672C470.452 546.672 466.772 545.808 463.572 544.08C460.372 542.288 457.844 539.696 455.988 536.304C454.196 532.848 453.3 528.752 453.3 524.016V492.816H466.74V522.096C466.74 526.32 467.796 529.584 469.908 531.888C472.02 534.128 474.9 535.248 478.548 535.248C482.26 535.248 485.172 534.128 487.284 531.888C489.396 529.584 490.452 526.32 490.452 522.096V492.816H503.988ZM513.985 512.4C513.985 505.808 515.457 499.92 518.401 494.736C521.409 489.488 525.473 485.424 530.593 482.544C535.777 479.6 541.569 478.128 547.969 478.128C555.457 478.128 562.017 480.048 567.649 483.888C573.281 487.728 577.217 493.04 579.457 499.824H564.001C562.465 496.624 560.289 494.224 557.473 492.624C554.721 491.024 551.521 490.224 547.873 490.224C543.969 490.224 540.481 491.152 537.409 493.008C534.401 494.8 532.033 497.36 530.305 500.688C528.641 504.016 527.809 507.92 527.809 512.4C527.809 516.816 528.641 520.72 530.305 524.112C532.033 527.44 534.401 530.032 537.409 531.888C540.481 533.68 543.969 534.576 547.873 534.576C551.521 534.576 554.721 533.776 557.473 532.176C560.289 530.512 562.465 528.08 564.001 524.88H579.457C577.217 531.728 573.281 537.072 567.649 540.912C562.081 544.688 555.521 546.576 547.969 546.576C541.569 546.576 535.777 545.136 530.593 542.256C525.473 539.312 521.409 535.248 518.401 530.064C515.457 524.88 513.985 518.992 513.985 512.4ZM614.553 546.864C609.433 546.864 604.825 545.744 600.729 543.504C596.633 541.2 593.401 537.968 591.033 533.808C588.729 529.648 587.577 524.848 587.577 519.408C587.577 513.968 588.761 509.168 591.129 505.008C593.561 500.848 596.857 497.648 601.017 495.408C605.177 493.104 609.817 491.952 614.937 491.952C620.057 491.952 624.697 493.104 628.857 495.408C633.017 497.648 636.281 500.848 638.649 505.008C641.081 509.168 642.297 513.968 642.297 519.408C642.297 524.848 641.049 529.648 638.552 533.808C636.121 537.968 632.793 541.2 628.569 543.504C624.409 545.744 619.737 546.864 614.553 546.864ZM614.553 535.152C616.985 535.152 619.257 534.576 621.369 533.424C623.545 532.208 625.273 530.416 626.553 528.048C627.833 525.68 628.473 522.8 628.473 519.408C628.473 514.352 627.129 510.48 624.441 507.792C621.817 505.04 618.585 503.664 614.745 503.664C610.905 503.664 607.673 505.04 605.049 507.792C602.489 510.48 601.209 514.352 601.209 519.408C601.209 524.464 602.457 528.368 604.953 531.12C607.513 533.808 610.713 535.152 614.553 535.152ZM681.627 492.048C687.963 492.048 693.083 494.064 696.987 498.096C700.891 502.064 702.843 507.632 702.843 514.8V546H689.403V516.624C689.403 512.4 688.347 509.168 686.235 506.928C684.123 504.624 681.243 503.472 677.595 503.472C673.883 503.472 670.939 504.624 668.763 506.928C666.651 509.168 665.595 512.4 665.595 516.624V546H652.155V492.816H665.595V499.44C667.387 497.136 669.659 495.344 672.411 494.064C675.227 492.72 678.299 492.048 681.627 492.048ZM745.096 492.048C751.432 492.048 756.552 494.064 760.456 498.096C764.36 502.064 766.312 507.632 766.312 514.8V546H752.872V516.624C752.872 512.4 751.816 509.168 749.704 506.928C747.592 504.624 744.712 503.472 741.064 503.472C737.352 503.472 734.408 504.624 732.232 506.928C730.12 509.168 729.064 512.4 729.064 516.624V546H715.624V492.816H729.064V499.44C730.856 497.136 733.128 495.344 735.88 494.064C738.696 492.72 741.768 492.048 745.096 492.048ZM828.533 518.256C828.533 520.176 828.405 521.904 828.149 523.44H789.269C789.589 527.28 790.933 530.288 793.301 532.464C795.669 534.64 798.581 535.728 802.037 535.728C807.029 535.728 810.581 533.584 812.693 529.296H827.189C825.653 534.416 822.709 538.64 818.357 541.968C814.005 545.232 808.661 546.864 802.325 546.864C797.205 546.864 792.597 545.744 788.501 543.504C784.469 541.2 781.301 537.968 778.997 533.808C776.757 529.648 775.637 524.848 775.637 519.408C775.637 513.904 776.757 509.072 778.997 504.912C781.237 500.752 784.373 497.552 788.405 495.312C792.437 493.072 797.077 491.952 802.325 491.952C807.381 491.952 811.893 493.04 815.861 495.216C819.893 497.392 822.997 500.496 825.173 504.528C827.413 508.496 828.533 513.072 828.533 518.256ZM814.613 514.416C814.549 510.96 813.301 508.208 810.869 506.16C808.437 504.048 805.461 502.992 801.941 502.992C798.613 502.992 795.797 504.016 793.493 506.064C791.253 508.048 789.877 510.832 789.365 514.416H814.613ZM834.887 519.408C834.887 513.904 836.007 509.104 838.247 505.008C840.487 500.848 843.591 497.648 847.559 495.408C851.527 493.104 856.071 491.952 861.191 491.952C867.783 491.952 873.223 493.616 877.511 496.944C881.863 500.208 884.775 504.816 886.247 510.768H871.751C870.983 508.464 869.671 506.672 867.815 505.392C866.023 504.048 863.783 503.376 861.095 503.376C857.255 503.376 854.215 504.784 851.975 507.6C849.735 510.352 848.615 514.288 848.615 519.408C848.615 524.464 849.735 528.4 851.975 531.216C854.215 533.968 857.255 535.344 861.095 535.344C866.535 535.344 870.087 532.912 871.751 528.048H886.247C884.775 533.808 881.863 538.384 877.511 541.776C873.159 545.168 867.719 546.864 861.191 546.864C856.071 546.864 851.527 545.744 847.559 543.504C843.591 541.2 840.487 538 838.247 533.904C836.007 529.744 834.887 524.912 834.887 519.408ZM911.741 503.856V529.584C911.741 531.376 912.157 532.688 912.989 533.52C913.885 534.288 915.357 534.672 917.405 534.672H923.645V546H915.197C903.869 546 898.205 540.496 898.205 529.488V503.856H891.869V492.816H898.205V479.664H911.741V492.816H923.645V503.856H911.741Z" fill="white"/>
<rect width="58.8103" height="23.5241" rx="5" transform="matrix(0.706584 0.707629 -0.706584 0.707629 142.125 412)" fill="white"/>
<rect width="58.8103" height="23.5241" rx="5" transform="matrix(-0.706584 0.707629 0.706584 0.707629 251.387 412.097)" fill="white"/>
<rect width="58.7668" height="19.6179" transform="matrix(1 0 0 -1 167.52 468.596)" fill="white"/>
<rect width="58.8103" height="23.5241" rx="5" transform="matrix(0.706584 -0.707629 0.706584 0.707629 97 567.104)" fill="white"/>
<rect width="58.8103" height="23.5241" rx="5" transform="matrix(0.706584 0.707629 0.706584 -0.707629 97.0965 457.681)" fill="white"/>
<rect width="58.8537" height="19.5889" transform="matrix(0 -1 -1 0 153.513 541.671)" fill="white"/>
<rect width="58.8103" height="23.5241" rx="5" transform="matrix(-0.706584 -0.707629 0.706584 -0.707629 251.875 612)" fill="white"/>
<rect width="58.8103" height="23.5241" rx="5" transform="matrix(0.706584 -0.707629 -0.706584 -0.707629 142.613 611.903)" fill="white"/>
<rect width="58.7668" height="19.6179" transform="matrix(-1 0 0 1 226.48 555.404)" fill="white"/>
<rect width="58.8103" height="23.5241" rx="5" transform="matrix(-0.706584 0.707629 -0.706584 -0.707629 297 456.896)" fill="white"/>
<rect width="58.8103" height="23.5241" rx="5" transform="matrix(-0.706584 -0.707629 -0.706584 0.707629 296.904 566.319)" fill="white"/>
<rect width="58.8537" height="19.5889" transform="matrix(0 1 1 0 240.487 482.329)" fill="white"/>
</svg>
